<svg preserveAspectRatio="xMidYMid meet" id="comp-k98bw3oesvgcontent" data-bbox="57.5 37.5 85 125.004" viewBox="57.5 37.5 85 125.004" height="200" width="200" xmlns="http://www.w3.org/2000/svg" data-type="color" role="img" aria-labelledby="comp-k98bw3oe-svgtitle"><title id="comp-k98bw3oe-svgtitle"></title>
    <g>
        <path d="M142.413 148.448c-.015.07-.044.135-.063.203.019-.068.048-.133.063-.203z" fill="#fff" data-color="1"></path>
        <path d="M142.169 149.179c-.038.083-.087.159-.13.239.043-.08.092-.156.13-.239z" fill="#fff" data-color="1"></path>
        <path d="M141.157 150.515c.039-.032.066-.073.103-.107a3.71 3.71 0 0 1-.265.219c.053-.039.111-.07.162-.112z" fill="#fff" data-color="1"></path>
        <path d="M141.592 150.067c.066-.076.132-.15.191-.231-.06.081-.126.155-.191.231z" fill="#fff" data-color="1"></path>
        <path d="M112.265 81.8H87.736c-.632 0-1.144.511-1.144 1.142v10.684c0 .631.512 1.142 1.144 1.142h24.529c.632 0 1.144-.511 1.144-1.142V82.942c0-.63-.512-1.142-1.144-1.142z" fill="gray" data-color="2"></path>
        <path d="M142.429 52.801c-.016-.081-.043-.158-.064-.237a3.737 3.737 0 0 0-.131-.421c-.035-.088-.078-.17-.119-.254a3.923 3.923 0 0 0-.19-.35 3.857 3.857 0 0 0-.611-.738 3.62 3.62 0 0 0-.31-.255c-.074-.055-.146-.111-.225-.161a3.733 3.733 0 0 0-.363-.197c-.082-.04-.16-.084-.245-.119a3.752 3.752 0 0 0-.437-.135c-.077-.02-.15-.049-.228-.064l-.029-.008-65.296-12.298a3.723 3.723 0 0 0-3.057.788 3.7 3.7 0 0 0-1.343 2.852v8.595h-8.57a3.707 3.707 0 0 0-3.711 3.704v94.162a3.708 3.708 0 0 0 3.711 3.704h54.807v9.349c0 .629.331 1.21.872 1.532.541.32 1.211.333 1.765.037l5.096-2.755 5.096 2.755a1.785 1.785 0 0 0 2.638-1.569v-9.349h7.305c.238 0 .468-.027.693-.07.086-.016.167-.044.25-.066.138-.036.275-.074.406-.126.092-.036.179-.08.267-.123.117-.057.231-.116.341-.185a3.926 3.926 0 0 0 .514-.391c.119-.106.227-.22.331-.341.065-.076.132-.15.191-.231.097-.132.177-.273.256-.418.043-.08.093-.156.13-.239a3.65 3.65 0 0 0 .181-.528c.019-.069.048-.133.063-.203.055-.253.087-.514.087-.784V53.502c0-.24-.027-.473-.071-.701zm-7.352 90.395v.764H64.923V57.206h70.154v85.99z" fill="#fff" data-color="1"></path>
    </g>
</svg>